<svg class="logo" id="_イヤー_2" xmlns="http://www.w3.org/2000/svg" width="238.14" height="42.71" viewBox="0 0 238.14 42.71"><defs><style>.cls-1{fill:#fff;}.cls-2{fill:#231815;fill-rule:evenodd;}.cls-3{fill:#d80012;}</style></defs><g id="_定デザイン"><g><g><g><path class="cls-3" d="M17.79,0C7.96,0,0,7.97,0,17.79c0,8.42,4.35,13.27,12.2,15.12,1.32,.31,3.58,.46,5.59,.46s4.27-.15,5.59-.46c7.85-1.85,12.2-6.7,12.2-15.12,0-9.82-7.96-17.79-17.79-17.79Zm9.99,22.65c-.5,.61-1.46,1.5-2.74,1.46-.79-.02-1.06-.51-1.16-.88-.27-3.13-2.89-5.59-6.09-5.59s-5.57,2.23-6.04,5.14v-.02s.04,1.24-1.22,1.27c-1.34,.03-2.33-.94-2.81-1.55-.86-1.61-1.37-3.44-1.37-5.4,.01-6.31,5.12-11.43,11.44-11.43,6.32,0,11.42,5.12,11.44,11.43,0,2.02-.53,3.91-1.45,5.55Z"/><path class="cls-3" d="M17.79,36.13c-5,0-9.04,1.47-9.04,3.29s4.04,3.29,9.04,3.29,9.04-1.48,9.04-3.29-4.05-3.29-9.04-3.29Z"/></g><path class="cls-1" d="M19.23,30.56c0-4.37-.59-7.91-1.32-7.91s-1.32,3.54-1.32,7.91,.59,7.91,1.32,7.91,1.32-3.54,1.32-7.91Z"/></g><path class="cls-2" d="M153.2,10.58h2.06v7.14h.05c.07-.11,.14-.21,.21-.32,.04-.02,.07-.03,.11-.05v-.1c.09-.08,.18-.15,.27-.22v-.1c.07-.06,.14-.1,.21-.16v-.11c.09-.08,.17-.14,.26-.21v-.1c.07-.06,.14-.11,.21-.16v-.06s.07-.03,.1-.05v-.11c.16-.14,.32-.28,.48-.42v-.11c.12-.1,.25-.21,.37-.31,.02-.04,.04-.07,.06-.1h.1c.12-.14,.25-.28,.37-.42h.11c.03-.06,.07-.11,.1-.16,.05-.02,.1-.04,.16-.06,.02-.04,.04-.07,.05-.11h.1s.03-.07,.06-.1h.11s.03-.07,.05-.11c.11-.03,.21-.06,.33-.1v-.05h.1v-.05c.11-.04,.21-.08,.32-.11v-.05c.32-.09,.63-.18,.95-.26,.22-.07,1.26,0,1.43,.05v.05h.26v.05h.16v.06h.16v.05c.07,.02,.14,.04,.21,.05v.05h.11v.06h.1l.11,.1h.1s.04,.07,.05,.1h.11c.05,.08,.1,.14,.16,.21h.1c.05,.07,.11,.15,.16,.21h.05v.11c.07,.04,.14,.1,.21,.15,.02,.05,.04,.1,.06,.16,.03,.02,.07,.03,.11,.06,.01,.07,.03,.14,.05,.21,.04,.01,.07,.03,.1,.05v.11h.05v.1h.04c.02,.05,.02,.11,.02,.17h.05v.1h.05v.16h.06v.16h.05v.16h.05c.28,.79,.16,2.33,.16,3.39v5.24c0,1.04-.05,2.24,.11,3.12,.41,.21,1.51,.11,2.12,.11v2.06c-.88,0-1.96,.08-2.6-.16h-.16v-.06c-.07-.01-.14-.03-.21-.05v-.05c-.07-.02-.14-.03-.21-.06-.01-.03-.03-.07-.05-.11h-.11c-.07-.08-.14-.17-.22-.26-.03-.01-.07-.04-.1-.05-.65-.91-.58-1.95-.58-3.49v-5.56c0-1.91,.29-4.13-1.06-4.71-.3-.12-1.08-.12-1.38,0v.06h-.11v.05h-.16s-.03,.07-.05,.11c-.07,.01-.14,.03-.21,.06v.04c-.05,.02-.11,.04-.16,.06-.01,.03-.04,.07-.05,.1h-.1c-.06,.07-.11,.15-.16,.21h-.1c-.09,.11-.18,.21-.27,.31-.22,.22-.45,.43-.68,.63v.11c-.11,.09-.22,.18-.32,.27v.1c-.09,.07-.18,.14-.27,.21v.1h-.06c-.03,.05-.07,.11-.1,.16-.04,.02-.07,.04-.11,.05v.1c-.07,.05-.14,.11-.21,.16v.1c-.07,.06-.14,.11-.21,.16v.11c-.09,.07-.18,.14-.27,.21v.11c-.07,.05-.14,.11-.21,.16v.11c-.07,.05-.14,.1-.21,.16v.1c-.07,.06-.14,.1-.21,.16v.11c-.09,.07-.18,.15-.27,.21v.11c-.07,.06-.14,.1-.21,.16v.1c-.07,.06-.14,.11-.21,.16v.11c-.07,.05-.14,.11-.22,.16v9.47h-2.06v-6.82h-.05v.1c-.07,.05-.14,.11-.21,.16v.11c-.07,.05-.14,.1-.21,.15v.11c-.07,.05-.14,.11-.21,.16v.1c-.07,.05-.14,.11-.21,.16v.11c-.07,.05-.14,.11-.21,.16v.11c-.07,.05-.14,.1-.21,.15v.1c-.07,.05-.14,.11-.21,.16v.11c-.07,.05-.14,.11-.21,.16v.11c-.07,.05-.14,.1-.21,.16v.1c-.07,.05-.15,.11-.21,.16v.11c-.07,.05-.14,.1-.21,.15v.11c-.07,.05-.14,.11-.21,.16v.1c-.07,.06-.14,.11-.21,.16v.1c-.07,.06-.14,.11-.21,.16v-3.23h.05c.04-.14,.08-.17,.16-.26h.04s.02-.07,.02-.11c.07-.06,.14-.1,.21-.16v-.11c.07-.05,.14-.11,.21-.16v-.1c.07-.05,.14-.11,.21-.16v-.11s.07-.03,.11-.05v-.05s.07-.04,.1-.05v-.11c.07-.05,.14-.1,.21-.15v-.1c.07-.06,.15-.11,.22-.16v-.11c.07-.05,.14-.11,.21-.16v-.11c.07-.05,.14-.11,.21-.16v-.11c.07-.05,.14-.1,.21-.15v-.11c.07-.05,.14-.11,.21-.16v-.11c.07-.05,.14-.11,.21-.16v-.11c.07-.06,.14-.11,.21-.16v-.11c.07-.05,.14-.1,.21-.15v-3.07h-3.33c-.15-.39-.06-1.49-.05-2.01,.27-.1,.76-.05,1.11-.05h2.28v-4.65Zm-33.97,.16h2.01c.13,.93,.25,1.87,.37,2.8,.1,.33,.19,.72,.21,1.11h5.77v2.06h-5.23v.06c.15,.16,.17,.56,.26,.79h.04c.02,.05,.02,.1,.02,.16h.05v.11h.05v.15h.05v.11h.05v.16h.05v.1h.04c.03,.08,.05,.15,.07,.21h.05v.11h.04s.02,.07,.02,.11h.05v.11h.05v.11h.04s.02,.07,.02,.1h.05v.11h.05v.11h.03s.02,.07,.02,.11l.11,.1v.11s.07,.03,.1,.05c.04,.1,.07,.21,.11,.32h.05s.04,.11,.05,.16c.04,.02,.07,.04,.1,.05,.02,.07,.04,.14,.05,.21,.04,.02,.07,.04,.11,.05v.1s.07,.04,.11,.05v.1h.05c.02,.06,.03,.11,.05,.16,.04,.01,.07,.04,.11,.05v.11h.05c.02,.05,.03,.11,.05,.16,.04,.02,.07,.04,.11,.05v.11s.07,.04,.1,.06c.02,.05,.04,.1,.05,.15,.06,.04,.11,.07,.16,.11v.11s.07,.04,.11,.05v.11c.07,.06,.14,.11,.21,.16v.11c.05,.04,.11,.07,.16,.1v.11c.07,.06,.14,.11,.21,.16v.11c.09,.07,.18,.14,.27,.21v.11c.1,.14,.2,.09,.27,.32h-2.59c-.03-.07-.08-.07-.11-.1v-.11c-.05-.03-.11-.07-.16-.11v-.11c-.05-.03-.11-.06-.16-.1v-.1s-.07-.04-.11-.06v-.1s-.1-.08-.16-.11v-.11s-.07-.03-.11-.05v-.1h-.05c-.02-.05-.04-.11-.05-.16-.03-.02-.07-.04-.11-.06v-.11s-.07-.03-.11-.05c-.02-.06-.03-.11-.05-.16h-.05c-.02-.07-.04-.14-.05-.21h-.05c-.02-.06-.04-.11-.06-.16-.03-.02-.07-.03-.11-.05-.02-.07-.04-.14-.05-.21-.04-.02-.07-.03-.1-.05-.03-.1-.07-.21-.11-.32-.04-.02-.07-.03-.11-.05-.12-.28-.24-.56-.37-.84h-.05v-.11h-.05v-.11h-.05c-.04-.1-.07-.21-.11-.32h-.05v-.16h-.05c-.02-.07-.04-.14-.06-.21h-.05v-.16h-.05v-.11h-.05c-.02-.1-.04-.21-.05-.32h-.05v-.1h-.05v-.16h-.05v-.15h-.05v-.17h-.06v-.21h-.05v-.16h-.05c-.04-.17-.07-.34-.11-.52h-.05c-.11-.1-.44-.06-.63-.06h-7.88v-2.06h8.04c-.01-.33-.13-.82-.21-1.11-.03-.33-.07-.67-.1-1h-.06c-.05-.6-.11-1.2-.16-1.8Zm15.45,0h2.12c-.06,.24-.11,.49-.16,.74h-.05c-.04,.18-.07,.36-.1,.53h-.05v.21h-.05v.16h-.05v.21h-.05v.16h-.05c-.02,.13-.04,.25-.05,.37h-.05c-.02,.13-.03,.24-.05,.37h-.05c-.02,.12-.03,.25-.05,.38h-.05v.2h-.05v.16h-.05v.21c-.46,1.26-.76,2.7-1.22,3.97v.21h-.05c-.02,.12-.04,.25-.05,.37h-.05v.16c-.07,.21-.14,.42-.21,.63h.1v-.05h.21v-.06h.26v-.05h.43v-.05h.74v.05h.42v.05h.32v.06h.22v.05h.16v.05h.16v.05h.16v.05c.07,.02,.14,.03,.21,.05v.04c.05,.01,.11,.01,.16,.01v.06h.11v.05h.1s.04,.07,.06,.11c.07,.02,.14,.03,.21,.06v.05s.11,.03,.16,.05c.02,.04,.04,.08,.05,.1h.1c.05,.08,.11,.15,.17,.21h.1c.04,.06,.07,.11,.11,.16,.1,.09,.21,.18,.31,.26v.1c.05,.04,.1,.07,.16,.11v.11s.07,.04,.1,.05v.11s.07,.04,.11,.05v.11l.1,.1v.11h.05v.11h.04s.02,.07,.02,.11h.05v.16h.06v.1h.04c.11,.39,.19,.78,.28,1.16v.54h.05v.95c.08,.27-.03,.75,.05,1.06,.15,.52,.16,1.1,.42,1.48,.06,.04,.1,.07,.16,.1,.07,.09,.15,.18,.22,.27,.07,.01,.14,.04,.21,.05v.05c.07,.02,.15,.03,.22,.05v.05h.16c.71,.28,1.65,.16,2.22-.15v-.05h.1s.04-.07,.05-.11h.11c.05-.07,.1-.14,.16-.21h.11c.05-.07,.11-.14,.16-.21h.06v-.1c.07-.06,.14-.11,.21-.16v-.11s.07-.03,.11-.05c.02-.07,.04-.15,.05-.22h.05v-.1h.05c.03-.11,.07-.21,.1-.32h.05c.02-.1,.03-.21,.05-.32h.05v-.21h.05v-.15h.05c.02-.16,.04-.32,.06-.48h.05v-.26h.04c.09-.52,.16-1.03,.23-1.54h1.96c0,.33-.08,.7-.16,.96v.31h-.05v.32h-.05v.27h-.05c-.02,.18-.04,.36-.05,.53h-.05c-.02,.14-.04,.28-.05,.42h-.05v.21h-.05v.16h-.05v.16h-.05v.15h-.05v.16h-.05v.11h-.05v.16h-.05c-.02,.07-.04,.14-.05,.21h-.05c-.02,.07-.03,.14-.05,.2-.03,.02-.07,.04-.11,.06-.01,.07-.03,.14-.05,.21-.04,.02-.07,.04-.11,.05v.1s-.07,.04-.1,.06v.1c-.05,.04-.1,.07-.16,.11v.11c-.16,.13-.32,.28-.47,.42-.09,.11-.18,.21-.27,.32h-.11s-.03,.07-.05,.11c-.05,.02-.1,.04-.16,.05v.05h-.1s-.04,.07-.05,.11c-.07,.02-.14,.04-.21,.05-.01,.03-.03,.07-.05,.11h-.11v.04s-.07,.01-.1,.01v.06h-.16v.05h-.1v.05h-.16c-.72,.29-1.74,.44-2.59,.16-.14-.02-.28-.04-.42-.06v-.05h-.16v-.06h-.11v-.05h-.15v-.05c-.07-.02-.14-.04-.21-.06v-.05c-.07-.02-.14-.04-.21-.05v-.06s-.1-.03-.16-.05c-.02-.04-.03-.07-.05-.11h-.11c-.03-.05-.07-.1-.11-.15h-.1s-.04-.07-.05-.11c-.1-.09-.21-.17-.32-.27v-.1c-.07-.06-.14-.11-.21-.16v-.1s-.07-.04-.1-.05c-.02-.07-.04-.14-.05-.21h-.05c-.04-.1-.07-.21-.1-.32h-.05v-.16h-.05v-.16h-.05v-.15h-.06v-.16h-.05v-.26h-.05v-.27h-.05v-.37h-.06c-.02-.65-.04-1.31-.05-1.96-.07-.48-.14-.96-.21-1.43h-.05v-.11h-.05v-.16h-.05c-.02-.06-.04-.14-.06-.21-.18-.19-.35-.39-.53-.58h-.1c-.04-.05-.07-.11-.11-.16-.07-.02-.14-.03-.21-.05v-.05c-.1-.03-.21-.07-.32-.11v-.05c-.12-.01-.25-.04-.37-.05v-.05h-.21v-.05c-.27-.08-1.27,.04-1.43,.11v.05c-.07,.02-.14,.03-.21,.05v.06c-.07,.02-.14,.04-.21,.05-.05,.07-.1,.14-.16,.21-.1,.09-.21,.18-.31,.26v.11s-.07,.04-.11,.06c-.02,.07-.04,.14-.05,.21-.03,.02-.07,.03-.11,.05-.02,.07-.03,.14-.05,.21h-.05v.1h-.05c-.04,.11-.07,.21-.11,.32h-.05v.16h-.06v.1h-.05c-.02,.11-.04,.21-.05,.32h-.05v.1h-.05c-.04,.18-.07,.36-.1,.53-.32,.89-.58,1.91-.9,2.8v.21h-.05v.15h-.05v.16h-.05v.21h-.05v.16h-.05v.16h-.05v.16h-.05c-.05,.23-.11,.46-.16,.69h-.05v.21c-.09,.24-.21,.5-.27,.8h-2.12c0-.29,.13-.48,.21-.7,.03-.17,.07-.35,.1-.52h.04c.01-.06,.01-.11,.01-.16h.05v-.16h.06v-.15h.04c.08-.3,.16-.6,.23-.9h.05v-.15h.05v-.16h.05c.04-.18,.07-.35,.11-.54h.05c.04-.17,.07-.35,.11-.52h.05c.04-.19,.07-.36,.1-.53h.06v-.21h.05v-.16h.04c.01-.05,.01-.11,.01-.16h.05c.04-.17,.07-.35,.11-.53h.05c.02-.12,.04-.25,.06-.37h.04c.02-.07,.02-.14,.02-.21,.6-1.66,.99-3.52,1.58-5.19v-.21h.06v-.16h.05c.02-.12,.04-.25,.05-.37h.05c.04-.18,.07-.35,.11-.53h.05v-.21h.05v-.16h.05c.01-.13,.03-.25,.05-.37h.05c.02-.12,.04-.25,.05-.37h.05v-.21c.31-.85,.54-1.84,.85-2.7,.07-.32,.14-.64,.21-.95h.05v-.16h.05c.01-.12,.03-.24,.05-.37h.05c.02-.12,.04-.25,.05-.37h.03c.02-.07,.02-.14,.02-.21,.1-.27,.24-.56,.27-.9Zm100.12,1.43h1.38v2.69h-1.38v-2.69Zm3.34,2.69h-1.43v-2.64c.33-.12,.95-.05,1.38-.05,.08,.21,.06,.6,.06,.89v1.8Zm-15.98-2.64h11.91v3.28h.69c0,.35-.12,.64-.22,.9-.03,.19-.07,.39-.1,.58h-.06v.21h-.05v.16h-.05v.16h-.05v.15h-.05c-.02,.1-.04,.21-.05,.32h-.05v.11h-.05c-.02,.11-.04,.21-.06,.32h-.05v.11h-.05v.15h-.05v.11h-.05v.16h-.05c-.02,.07-.03,.14-.05,.22h-.05v.11h-.05v.16h-.06c-.03,.1-.07,.21-.1,.32h-.05v.1h-.06v.11h-.05v.1h-.05v.11h-.05v.11h-.06v.1l-.1,.11v.1s-.08,.04-.11,.05c-.04,.1-.07,.21-.1,.32-.04,.02-.07,.03-.11,.05v.11h-.05v.1h-.05v.11h-.06c-.05,.07-.03,.09-.05,.21,.48,.28,.83,.78,1.21,1.17,.8,.79,1.59,1.59,2.38,2.38,.16,.14,.32,.29,.48,.43v.11c.06,.04,.11,.07,.16,.1,.11,.12,.21,.25,.32,.37,.16,.14,.32,.28,.48,.42v3.12c-.24-.06-.28-.27-.42-.42-.11-.09-.21-.18-.32-.26v-.11c-.05-.03-.1-.08-.15-.1-.09-.11-.18-.22-.27-.32-.12-.1-.25-.21-.37-.32v-.1c-.51-.5-1.02-.99-1.54-1.49-.08-.1-.18-.21-.26-.31-.05-.04-.1-.07-.16-.11v-.1c-.34-.32-.67-.64-1-.95-.14-.16-.28-.33-.43-.48h-.1c-.07-.08-.15-.18-.21-.26-.23-.21-.46-.42-.69-.64-.14-.13-.21-.3-.43-.37-.09,.13-.18,.25-.26,.37-.05,.04-.11,.07-.16,.11v.11c-.18,.16-.36,.32-.53,.48v.11c-.07,.05-.14,.1-.22,.16-.14,.16-.28,.31-.42,.47h-.1c-.14,.16-.29,.32-.43,.48-.05,.02-.1,.03-.16,.05-.09,.1-.18,.21-.27,.31h-.1c-.05,.07-.11,.15-.16,.21h-.11c-.05,.07-.1,.14-.16,.22h-.11s-.07,.1-.11,.15c-.05,.02-.1,.04-.16,.06-.02,.03-.04,.07-.05,.1h-.1s-.04,.07-.05,.11h-.1c-.04,.05-.07,.1-.11,.16h-.1s-.04,.07-.05,.1c-.05,.02-.11,.03-.16,.06v.05h-.11s-.03,.07-.05,.11c-.07,.02-.14,.04-.21,.05v.05c-.05,.02-.11,.04-.16,.06-.02,.03-.03,.07-.05,.1h-.11v.06h-.11s-.04,.07-.05,.1c-.07,.02-.14,.04-.21,.05-.02,.04-.03,.08-.05,.1h-.1v.06h-.11l-.1,.11h-.11s-.03,.07-.05,.1h-.11l-.1,.11h-.11v.05h-.1v.06h-.11v.05h-.11v.05h-.11v.05h-.1v.05c-.1,.04-.21,.07-.32,.11v.05h-.16v.05h-.1v.05c-.07,.02-.14,.03-.21,.05v.05h-.16v.06c-.07,.02-.14,.03-.21,.05v.05h-.16v.06h-.11v.05h-.16v.05h-.1v.05h-.16v.05h-.16v.05h-.11v.06c-.16,.04-.31,.07-.48,.1-.24,.09-.49,.23-.79,.26v-2.22c1.06-.4,2.12-.77,3.02-1.33h.11v-.05h.11v-.05h.11l.1-.1h.11s.04-.07,.05-.11c.07-.01,.14-.03,.21-.05,.02-.04,.03-.07,.05-.1,.07-.02,.14-.04,.22-.06,.01-.03,.03-.07,.05-.1,.07-.02,.14-.04,.21-.05v-.05c.05-.02,.1-.04,.16-.05,.02-.04,.04-.07,.06-.11h.1v-.05s.1-.03,.16-.05c.02-.03,.04-.07,.05-.1h.11c.04-.06,.07-.1,.11-.16h.1c.04-.05,.07-.11,.1-.16h.11c.03-.05,.07-.11,.1-.16h.11s.07-.11,.1-.16h.11s.07-.1,.1-.16h.05s.04-.07,.05-.11h.1c.09-.11,.18-.21,.27-.31h.1c.13-.14,.25-.29,.37-.43,.32-.29,.63-.6,.95-.9v-.1c.12-.1,.25-.21,.37-.32v-.11c.07-.05,.14-.11,.21-.16v-.1s.07-.04,.11-.06c.02-.05,.04-.11,.05-.16,.07-.05,.14-.1,.21-.15v-.11s.07-.03,.11-.05v-.1c.05-.04,.1-.07,.16-.11v-.11s.07-.04,.1-.05v-.11s.07-.04,.11-.06v-.1s.07-.03,.11-.05v-.1s.07-.03,.11-.05c.01-.07,.03-.14,.05-.21,.03-.02,.07-.03,.1-.05,.02-.07,.04-.14,.05-.21,.04-.02,.07-.03,.1-.05v-.11h.05v-.1l.11-.1v-.11s.07-.03,.1-.05c.04-.11,.07-.21,.11-.32h.05v-.1h.05c.04-.11,.07-.21,.1-.32h.06v-.15h.05v-.11h.05c.01-.07,.04-.14,.05-.21h.05v-.16h.05v-.1h.05c.02-.09,.03-.18,.05-.27h.06v-.15h.05v-.11h.05c.01-.11,.04-.22,.05-.32h.06v-.16h.04c.02-.06,.02-.1,.02-.16h.05v-.16h.05v-.21c.21-.57,.43-1.34,.48-2.06h-10.64v-2.12Zm-30.9,17.62v-2.17c.44-.03,.96-.19,1.32-.32,.14-.01,.28-.04,.42-.05v-.05h.16v-.05h.16v-.06h.16v-.03c.1-.04,.21-.05,.32-.07v-.05h.11v-.05h.16v-.06h.1v-.05h.16v-.05l.21-.05v-.05h.16v-.05c.11-.04,.21-.07,.32-.11v-.05h.1v-.05c.07-.02,.14-.04,.21-.05,.01-.04,.03-.07,.05-.11,.11-.03,.21-.07,.32-.1,.01-.04,.03-.07,.05-.1h.1v-.05h.11v-.06c.05-.01,.11-.03,.16-.05,.02-.04,.04-.07,.05-.1h.1s.04-.07,.05-.11h.11c.04-.05,.07-.11,.1-.16h.11c.03-.05,.07-.11,.1-.16h.11c.07-.09,.14-.17,.22-.27h.1c.16-.18,.32-.35,.48-.53,.18-.16,.35-.32,.53-.48v-.1c.08-.07,.18-.14,.27-.21v-.11c.05-.03,.11-.07,.16-.1,.01-.06,.04-.11,.05-.16,.04-.02,.07-.04,.11-.06v-.1s.07-.04,.11-.06c.02-.05,.04-.11,.05-.16h.06v-.11s.07-.03,.1-.05c.01-.05,.04-.11,.05-.16h.06c.01-.07,.03-.14,.05-.21,.04-.02,.07-.04,.11-.06,.02-.07,.03-.14,.05-.21,.03-.02,.07-.04,.1-.05v-.11l.11-.11v-.11h.04s.01-.07,.01-.11h.05v-.11h.05v-.11h.06v-.1h.05v-.11h.06v-.11h.05c.04-.1,.07-.21,.11-.31h.05v-.16h.06c.02-.07,.04-.14,.05-.21h.05v-.15h.05v-.1h.05v-.16h.04s.01-.07,.01-.11h.05c.04-.16,.07-.32,.11-.48h.05v-.1h.06v-.16h.03c.02-.08,.02-.14,.02-.21h.05v-.16h.06v-.16h.03c.02-.07,.02-.14,.02-.21h.05v-.17h.05v-.21h.06v-.21h.05v-.21h.05v-.21h.04c.02-.07,.02-.14,.02-.22h.05c.04-.26,.07-.52,.11-.79h.05c.02-.23,.04-.46,.05-.68,.11-.39,.15-.84,.16-1.33h-13.33v-2.11c.36-.13,1.03-.05,1.48-.05h14.02c.15,.4,.05,1.14,.05,1.64-.1,.13-.04,.48-.05,.69-.02,.23-.04,.46-.06,.7h-.05v.48h-.05v.37h-.06v.32h-.05v.32h-.05c-.04,.26-.07,.53-.11,.79h-.05v.26h-.05v.21h-.06v.21h-.05v.22h-.05v.21h-.05v.21h-.05v.16h-.05c-.03,.18-.07,.36-.1,.53h-.05v.15h-.05v.16h-.05v.16h-.05v.16h-.05v.16h-.05c-.02,.1-.04,.21-.05,.32h-.05v.11h-.05v.16h-.05v.11h-.05v.16h-.05c-.02,.07-.04,.14-.05,.21h-.06v.16h-.05c-.02,.07-.04,.14-.06,.21h-.05v.11h-.05v.16h-.05c-.04,.11-.07,.21-.11,.31h-.05v.11h-.05c-.03,.1-.07,.21-.1,.32-.04,.02-.07,.03-.11,.05v.11h-.05v.11l-.11,.11v.1s-.07,.04-.11,.06c-.02,.07-.04,.14-.05,.21-.04,.02-.07,.03-.11,.05-.02,.07-.03,.14-.05,.21h-.05c-.02,.06-.04,.11-.05,.16-.04,.02-.07,.04-.11,.05v.11h-.05s-.04,.1-.06,.15c-.04,.02-.07,.04-.11,.05v.1c-.05,.04-.11,.08-.16,.11v.1s-.07,.04-.1,.06v.11c-.07,.05-.14,.11-.21,.16v.1c-.05,.04-.11,.07-.16,.1-.02,.05-.04,.11-.06,.16-.14,.12-.28,.25-.42,.37v.1s-.1,.07-.16,.11c-.1,.12-.21,.25-.31,.37h-.11c-.12,.14-.25,.28-.37,.42h-.11c-.05,.07-.11,.14-.16,.21h-.1s-.04,.07-.05,.11h-.05s-.04,.07-.05,.11h-.11s-.04,.07-.05,.1h-.11c-.03,.05-.07,.11-.1,.16h-.11s-.03,.07-.05,.11h-.11s-.04,.07-.05,.1c-.05,.02-.11,.04-.16,.05v.05c-.08,.02-.14,.04-.22,.05-.02,.04-.03,.07-.05,.11-.11,.03-.21,.07-.32,.11-.02,.04-.04,.07-.05,.11h-.11l-.11,.1h-.1v.06h-.11v.05h-.11v.05h-.11v.05h-.1v.05c-.11,.04-.21,.07-.32,.11v.05h-.16v.05c-.07,.01-.14,.02-.21,.05v.05h-.16v.05h-.1v.06c-.11,.02-.21,.03-.32,.05v.05h-.11v.06h-.16v.05h-.16v.05h-.16v.05h-.16v.05h-.21c-.65,.23-1.5,.45-2.27,.53Zm-14.68-5.82h2.17c-.04,.12-.07,.24-.11,.37h-.05c-.04,.16-.07,.31-.11,.47h-.05v.11h-.05c-.02,.1-.04,.21-.05,.31h-.05v.11h-.05c-.02,.09-.04,.18-.05,.26h-.06c-.01,.11-.03,.21-.05,.32h-.05v.1h-.05v.16h-.05c-.02,.09-.04,.18-.05,.26h-.05v.11h-.06v.16h-.05c-.02,.07-.04,.14-.05,.21h-.05v.16h-.05v.11h-.05v.11s-.07,.04-.1,.06c-.04,.1-.07,.21-.1,.31-.04,.02-.07,.04-.11,.05v.11h-.05c-.02,.05-.04,.11-.05,.16-.04,.01-.07,.04-.1,.05v.11c-.07,.05-.14,.11-.21,.16v.1c-.14,.12-.28,.25-.42,.37-.05,.07-.11,.14-.16,.21h-.11c-.03,.06-.07,.11-.1,.16h-.1s-.04,.07-.06,.11h-.11s-.03,.07-.05,.11h-.1v.05c-.11,.04-.21,.07-.32,.1v.05c-.16,.04-.32,.08-.48,.11v.06h-.21c-.17,.06-.68,.19-.95,.1v-.05h-.42v-.05h-.22v-.06h-.21v-.05h-.17v-.06h-.1v-.05h-.16v-.05c-.07-.02-.14-.03-.21-.05v-.05c-.07-.02-.15-.04-.21-.06-.02-.04-.03-.07-.05-.11h-.1c-.04-.05-.07-.1-.11-.16h-.1v-.06c-.07-.05-.14-.1-.21-.16v-.11c-.07-.05-.14-.1-.21-.15v-.11s-.07-.03-.11-.05v-.1s-.07-.03-.1-.05c-.04-.11-.07-.21-.11-.32h-.05c-.04-.11-.07-.21-.11-.32h-.05v-.16h-.05v-.1h-.05v-.16h-.06v-.11h-.05c-.02-.1-.03-.21-.06-.31h-.05v-.21h-.05v-.16h-.05v-.21h-.05v-.21h-.05v-.21h-.05v-.27h-.05c-.05-.38-.11-.77-.16-1.16h-.05v-.32h-.05v-.43h-.06v-.42h-.05v-.48h-.05v-.58h-.05v-.64h-.05c-.01-.42-.03-.85-.05-1.27v-.58h-.05v-1.85c-.11-.4-.05-1.05-.05-1.54,.02-1.04,.04-2.08,.05-3.12,.39-.15,1.49-.06,2.01-.05,.05,.12,.06,.29,.06,.47-.12,.13-.06,.96-.06,1.22v4.13h.06v1.27h.05v.9h.05v.69h.05v.58h.04c.02,.17,.02,.34,.02,.52,.13,.45,.13,1.05,.26,1.48,.04,.28,.07,.57,.11,.85,.14,.49,.28,.99,.42,1.48h.05c.03,.11,.07,.21,.11,.32h.05c.02,.07,.04,.14,.05,.21,.04,.02,.07,.04,.11,.05v.11c.27,.39,1.33,.59,1.85,.26,.01-.04,.03-.07,.05-.1h.1c.05-.08,.11-.14,.16-.21,.15-.13,.28-.25,.43-.37v-.11s.07-.03,.11-.05v-.11s.07-.03,.11-.05v-.1s.07-.04,.1-.06v-.1h.04c.04-.07,.05-.14,.07-.21h.05c.11-.32,.21-.64,.32-.95h.03s.02-.07,.02-.1h.05c.12-.37,.25-.74,.37-1.11Zm3.65-10.9h2.43c.03,.06,.08,.07,.1,.11v.1h.03s.02,.07,.02,.11c.04,.01,.07,.03,.11,.05v.11h.03s.02,.07,.02,.11l.11,.11v.11s.07,.03,.11,.05c.03,.1,.07,.21,.1,.32h.05v.11h.05v.1h.04c.05,.11,.09,.22,.12,.32h.05v.16h.05v.1h.05c.02,.07,.04,.14,.05,.21h.06v.16h.05v.11h.05v.16h.05c.02,.09,.04,.18,.06,.27h.05v.11h.05v.16h.05v.11h.04c.05,.16,.08,.32,.12,.48h.05v.16h.05v.16h.05v.15h.03c.02,.06,.02,.11,.02,.16h.05v.16h.05v.15h.03c.04,.13,.06,.25,.07,.38h.05v.21h.06v.21h.05v.21h.06c.01,.16,.03,.31,.05,.48h.05v.26h.05v.32c.09,.29,.13,.71,.21,1.01v.42h.05v.48h.05v.58h.05v.8c.1,.37,.01,.93,.05,1.37,0,.11,.05,.11,.05,.11-.01,.63-.04,1.27-.05,1.9h-2.01c.06-3.51-.17-6.84-1.22-9.25-.02-.11-.04-.22-.05-.32h-.05v-.1h-.05v-.16h-.06v-.16h-.05c-.02-.08-.04-.14-.05-.21h-.05v-.16h-.05v-.1h-.05c-.01-.09-.04-.18-.05-.26h-.05c-.03-.11-.07-.21-.1-.32h-.05v-.1h-.05v-.11h-.05v-.11h-.06v-.1l-.1-.11v-.11s-.07-.03-.11-.05c-.03-.11-.07-.21-.1-.31-.04-.02-.07-.04-.11-.06-.02-.07-.04-.14-.05-.21-.04-.02-.07-.04-.11-.06v-.1h-.05c-.02-.05-.04-.1-.06-.15-.03-.03-.07-.04-.1-.06v-.11h-.05s-.04-.11-.05-.16c-.04-.02-.07-.04-.11-.05v-.11h-.05c-.07-.09-.12-.13-.16-.26Zm-133.6,.11h1.38v2.54h2.07v1.48h-1.7c.05,.4,.11,.81,.16,1.21h.05v.32c.14,.45,.22,1,.37,1.43,.02,.14,.04,.29,.05,.42h.05c.02,.12,.04,.25,.05,.37h.04c.02,.05,.02,.11,.02,.16h.05v.16h.05v.16h.04c.01,.05,.01,.1,.01,.16h.06v.16h.05c.03,.15,.07,.32,.1,.47h.05c.02,.09,.04,.18,.05,.27h.05v.1h.05v.16h.04s.01,.07,.01,.1h.05v2.75h-.05v-.05h-.05c-.01-.05-.03-.11-.05-.16-.03-.01-.07-.04-.11-.05-.02-.07-.03-.14-.05-.21-.03-.01-.07-.03-.1-.05v-.1h-.05v-.11l-.11-.1v-.11s-.07-.03-.11-.05c-.02-.07-.04-.14-.05-.21h-.05c-.04-.11-.07-.21-.11-.32h-.05v-.15h-.05v-.11h-.05c-.04-.11-.07-.21-.1-.31h-.05v-.16h-.05v-.11h-.05v-.15h-.05v-.11h-.05v-.16h-.05v-.11h-.05v-.16h-.05v-.16h-.05v-.16h-.05v-.16h-.05c-.02-.11-.04-.21-.05-.32h-.05v7.24h-1.38v-6.56c0-.18,.04-.44-.05-.53-.02,.23-.14,.41-.21,.59-.02,.1-.03,.21-.05,.32h-.05v.1h-.05v.16h-.05v.11h-.05v.16h-.05c-.02,.07-.04,.14-.05,.21h-.05c-.02,.09-.03,.17-.05,.26h-.05c-.04,.11-.07,.21-.11,.32h-.05v.1h-.05v.11h-.05v.1h-.05v.11h-.06v.1l-.11,.11v.1s-.07,.04-.11,.05c-.01,.07-.03,.14-.05,.21-.03,.02-.07,.04-.1,.05-.02,.07-.04,.14-.06,.21-.04,.02-.07,.04-.1,.05v.11s-.07,.04-.11,.05v.11s-.07,.03-.1,.05c-.11,.16-.03,.25-.27,.31v-2.43h.05c.04-.1,.07-.21,.1-.31h.06v-.16h.04s.02-.07,.02-.11h.05c.02-.07,.03-.14,.05-.21h.06v-.16h.05v-.11h.05v-.15h.04s.01-.08,.01-.1h.06c.04-.16,.07-.32,.1-.48h.05v-.16h.06v-.16h.03c.02-.05,.02-.1,.02-.15h.06v-.16h.05v-.16h.04c.02-.05,.02-.11,.02-.16h.05c.03-.2,.07-.39,.1-.58h.05c.16-.76,.32-1.51,.48-2.28v-.37h.05c.05-.17,.01-.36,.05-.47h-1.8c-.13-.36-.06-1.03-.05-1.48h2.17v-2.54Zm6.35,0c.01,.94-.33,1.7-.42,2.54h1.48v-2.54h1.59v2.54h3.07v1.42c-.24,.1-.67,.06-1,.06h-2.06v2.64h3.44v1.48h-2.28c.12,.37,.25,.74,.37,1.11h.05c.02,.07,.04,.14,.05,.21h.05v.16h.05v.1h.04c.02,.05,.02,.1,.02,.16h.05v.11h.05v.1h.06v.11h.05v.16h.05c.04,.1,.07,.21,.1,.32h.05v.1h.04s.02,.07,.02,.1h.05v.16h.05v.11h.05v.1h.05v.11h.06v.1h.03c.05,.11,.09,.21,.13,.33,.04,.01,.07,.03,.11,.05v.11h.06v.1h.03s.01,.08,.01,.11l.11,.11v.11s.07,.04,.11,.05c.03,.11,.07,.21,.11,.32h.05c.02,.05,.03,.1,.05,.16,.03,.02,.07,.03,.11,.05v.1h.05v.11s.07,.04,.1,.05v.11s.07,.03,.11,.05v2.38h-.11v-.11c-.27-.17-.4-.43-.58-.69-.06-.03-.11-.07-.15-.11v-.1c-.06-.04-.11-.07-.16-.11v-.11s-.07-.03-.1-.05v-.1s-.07-.04-.11-.05v-.11s-.07-.04-.11-.05v-.11s-.07-.04-.11-.05c-.02-.07-.03-.14-.05-.21-.04-.02-.07-.03-.1-.05-.01-.05-.04-.11-.05-.15h-.05v-.11l-.11-.11v-.11s-.07-.03-.1-.05v-.1h-.05v-.11l-.11-.1v-.1s-.07-.04-.1-.05v-.11l-.11-.1v-.11h-.05v-.11h-.05v-.11h-.05v-.11h-.06v-.11h-.05v-.1h-.05v-.1h-.05v-.11h-.06c-.03-.1-.07-.21-.11-.31h-.05c-.02-.09-.04-.18-.05-.27h-.05c-.04-.11-.07-.21-.11-.32h-.05v-.16h-.05c-.02-.07-.04-.14-.05-.21h-.05v-.16h-.05c-.01-.07-.03-.14-.05-.21h-.05v-.15h-.05v-.11h-.06v-.16h-.05c-.02-.09-.04-.17-.05-.27h-.05v6.4c-.39,.15-1.11,.05-1.59,.05v-6.03h-.05v.11h-.05v.15h-.05c-.02,.07-.03,.14-.05,.21h-.05v.16h-.06v.11h-.05c-.02,.09-.04,.18-.05,.27h-.05v.1h-.06c-.04,.11-.07,.21-.1,.32h-.05v.16h-.06v.1h-.05c-.02,.08-.04,.15-.05,.21h-.05v.11h-.05v.1h-.05v.1h-.05v.11h-.05v.11h-.05v.11h-.05v.11h-.05v.11l-.1,.1v.11s-.07,.04-.11,.05v.1h-.05v.1l-.1,.11v.1s-.07,.04-.11,.05v.11h-.05v.11s-.07,.04-.11,.05c-.02,.07-.04,.14-.05,.21-.03,.02-.07,.03-.11,.05v.1h-.05v.11h-.05c-.02,.05-.03,.11-.05,.16-.04,.02-.07,.03-.11,.05v.11s-.07,.03-.11,.05v.1c-.05,.04-.1,.08-.16,.1v.11s-.07,.03-.1,.05v.1s-.07,.04-.11,.05c-.02,.05-.04,.1-.05,.16-.07,.05-.14,.1-.21,.16-.13,.13-.03,.2-.27,.27v-2.44h.05v-.1s.07-.04,.11-.05c.02-.07,.04-.14,.05-.21,.04-.01,.07-.03,.1-.05,.02-.07,.04-.14,.05-.21,.04-.02,.07-.03,.11-.05v-.11l.11-.11v-.11h.05v-.1h.03s.02-.07,.02-.11h.05v-.1s.07-.04,.11-.05c.02-.07,.04-.14,.05-.21h.06v-.1h.03c.05-.11,.09-.21,.12-.32h.04c.02-.05,.02-.1,.02-.16h.05v-.1h.05v-.1h.04c.05-.11,.08-.21,.12-.32h.06v-.16h.05c.02-.07,.04-.14,.05-.21h.04c.02-.06,.02-.11,.02-.16h.05c.01-.07,.04-.14,.05-.21h.04c.02-.05,.02-.11,.02-.16h.05v-.11h.05v-.16c.14-.32,.34-.67,.42-1.06h-2.65v-1.48h3.65v-2.64h-2.07c-.07,.13-.14,.28-.21,.42-.04,.02-.07,.04-.11,.06v.11s-.07,.03-.11,.05v.1c-.05,.04-.11,.07-.16,.11v.11c-.07,.05-.15,.1-.22,.15-.02,.06-.03,.11-.05,.17-.09,.07-.17,.14-.26,.21-.15,.15-.24,.36-.48,.43v-2.17h.04s.02-.07,.02-.11c.04-.01,.07-.04,.1-.05v-.11s.07-.03,.11-.05c.02-.08,.04-.14,.05-.21h.05c.04-.1,.07-.21,.11-.32h.04s.02-.1,.02-.16h.05v-.15h.05v-.21h.04c.02-.07,.02-.14,.02-.21h.05v-.21h.05v-.21h.04c.02-.09,.02-.18,.02-.26h.05v-.22h.05v-.31h.03c.02-.11,.02-.21,.02-.31h.05c.06-.23-.02-.45,.11-.59,.13-.11,1.15-.06,1.43-.05Zm17.25,0h1.59v2.43h3.34c.14,.39,.05,1.11,.05,1.6-.27,.09-.76,.04-1.11,.04h-2.28c0,.45-.04,1.07,.05,1.43v.58c.02,.23,.04,.46,.05,.69h.05v.42h.05v.37h.05v.32h.05v.32h.04c.03,.17,.05,.35,.07,.52h.05v.21h.04c.01,.07,.01,.14,.01,.21h.05v.2h.05v.16h.04c.02,.05,.02,.11,.02,.16h.05c.02,.11,.03,.21,.05,.32h.05v.1h.05v.16h.05v.11h.05v.15h.05c.04,.11,.07,.21,.1,.32h.06v.11h.05v.1h.03c.06,.11,.09,.21,.13,.32,.03,.01,.07,.03,.1,.05,.02,.07,.04,.14,.05,.21,.04,.02,.07,.04,.11,.05,.01,.07,.03,.14,.05,.21h.04c.03,.05,.06,.1,.07,.15,.03,.02,.07,.04,.1,.05v.11c.05,.04,.1,.07,.16,.11v.11c.05,.04,.11,.07,.16,.11v.1c.07,.05,.14,.11,.21,.16v.1c.21,.2,.42,.39,.64,.58,.15,.15,.24,.36,.48,.42,.09,.56,.05,1.33,.05,1.96-.12-.02-.13,0-.21-.06v-.05h-.1v-.05h-.11c-.04-.06-.07-.11-.11-.16h-.1s-.04-.06-.05-.1h-.11c-.03-.05-.07-.11-.11-.16h-.11c-.05-.07-.1-.14-.16-.21h-.1c-.23-.25-.46-.5-.69-.74-.13-.11-.25-.21-.38-.32v-.11c-.07-.05-.14-.1-.21-.16v-.11s-.07-.03-.11-.05v-.05s-.07-.04-.11-.05v-.11s-.07-.04-.1-.05v-.11c-.05-.03-.1-.07-.16-.1v-.11s-.07-.03-.11-.05c-.01-.05-.04-.11-.05-.16h-.05c-.02-.07-.04-.14-.05-.21-.04-.02-.07-.04-.11-.05-.02-.07-.04-.14-.05-.21-.04-.02-.07-.03-.11-.05v-.11l-.11-.11v-.1h-.05v-.11h-.06v-.1h-.05v-.11h-.05v-.11h-.05v-.11h-.05v-.11h-.05c-.04-.1-.07-.21-.11-.32h-.05v-.16h-.05v-.1h-.06c-.02-.11-.04-.21-.05-.32h-.06v-.1h-.05c-.02-.13-.03-.25-.05-.37h-.05v-.16h-.05c-.02-.12-.04-.25-.05-.37h-.05v-.26c-.46-1.44-.52-3.21-.53-5.09h-9.1v-1.64h9.1v-2.43Zm4.98,0v1.38h-2.33v-1.33c.2-.07,.57-.05,.85-.05h1.49Zm16.46,4.81c-.27-.05-.53-.1-.8-.16v-.05h-.21v-.06h-.16v-.05h-.16v-.06h-.16v-.05h-.16v-.05c-.1-.02-.21-.04-.32-.05v-.06h-.1v-.05c-.11-.02-.21-.03-.32-.05v-.06h-.1v-.04c-.09-.03-.18-.04-.27-.06v-.05c-.11-.04-.22-.08-.32-.11v-.05h-.11v-.05h-.16v-.06c-.07-.01-.13-.04-.21-.05v-.05c-.07-.02-.14-.04-.21-.06-.02-.03-.04-.07-.06-.1h-.1v-.06h-.11v-.05h-.1l-.1-.11h-.1s-.04-.08-.06-.11h-.11v-.05c-.07-.02-.14-.03-.21-.05-.02-.04-.04-.07-.05-.1h-.11s-.03-.08-.05-.11c-.07-.02-.14-.03-.21-.05-.02-.03-.03-.08-.05-.1h-.1s-.04-.08-.05-.11h-.1v-.05c-.05-.02-.1-.03-.16-.05-.01-.04-.03-.07-.05-.11h-.11s-.03-.07-.05-.1h-.1c-.04-.05-.07-.11-.1-.16h-.11s-.04-.07-.06-.11h-.1s-.04-.07-.05-.1c-.05-.02-.11-.04-.16-.05-.03-.06-.07-.11-.11-.16h-.1c-.05-.07-.1-.14-.16-.21h-.11s-.04-.08-.05-.11c-.09-.08-.19-.15-.32-.21v.05c-.09,.05-.18,.11-.27,.16-.02,.04-.04,.08-.05,.11h-.1c-.05,.06-.11,.14-.16,.21h-.1s-.07,.11-.1,.16h-.11c-.04,.05-.07,.1-.11,.16h-.11c-.04,.06-.07,.11-.11,.16h-.1s-.04,.07-.05,.11h-.11s-.03,.07-.05,.1h-.11s-.03,.07-.05,.11h-.1v.05c-.05,.02-.11,.04-.16,.05-.02,.04-.04,.07-.05,.11h-.11s-.04,.07-.05,.1c-.05,.02-.11,.03-.16,.05v.05c-.07,.02-.14,.03-.21,.06-.01,.03-.04,.06-.05,.1-.07,.02-.14,.03-.21,.05-.02,.03-.04,.07-.05,.11h-.11v.05h-.1v.05h-.11l-.11,.1h-.11s-.04,.08-.05,.11c-.07,.02-.14,.03-.21,.05v.06h-.11v.05c-.1,.03-.21,.07-.31,.1v.05h-.16v.05h-.1v.05c-.07,.02-.15,.03-.21,.05v.05h-.16v.06c-.07,.01-.14,.03-.21,.04v.06h-.16v.05h-.1v.05c-.16,.04-.32,.07-.47,.11-.46,.19-1,.37-1.54,.48v-1.64h.05v-.05c.36,0,.64-.16,.9-.26,.1-.02,.21-.04,.32-.06v-.05h.11v-.05h.16v-.06h.1v-.04h.16v-.06c.07-.02,.14-.04,.21-.06v-.05h.16v-.05h.11v-.06h.11v-.05h.1v-.05h.11v-.05h.1v-.05h.11v-.06h.1v-.05h.11v-.05h.11l.1-.11h.11s.03-.07,.05-.1c.1-.04,.21-.07,.32-.11,.01-.03,.04-.07,.05-.1h.1v-.04s.07-.01,.11-.01c.02-.04,.03-.08,.05-.1h.11s.03-.08,.05-.11h.1s.04-.06,.05-.1c.07-.02,.14-.04,.21-.05,.04-.05,.07-.11,.11-.16h.11v-.06c.05-.02,.1-.03,.16-.05,.01-.03,.04-.06,.05-.1h.11s.07-.1,.11-.16h.1c.04-.05,.07-.11,.11-.15h.1c.05-.07,.11-.15,.16-.21h.1c.06-.07,.11-.14,.16-.21h2.59c.05,.07,.1,.14,.16,.21h.1c.06,.07,.11,.14,.16,.21,.06,.01,.11,.03,.16,.05,.02,.04,.03,.07,.05,.11h.11s.04,.07,.05,.11h.1s.07,.1,.11,.15h.1s.04,.08,.05,.11c.05,.02,.11,.03,.16,.05v.05h.11s.03,.07,.06,.11h.11s.04,.07,.05,.1h.1s.04,.08,.06,.11c.07,.01,.14,.03,.21,.04,.02,.04,.04,.07,.06,.11,.05,.02,.1,.04,.15,.05v.05c.07,.02,.14,.04,.22,.06v.06h.11s.04,.07,.05,.1h.1l.11,.11h.1v.05h.1v.05h.11v.06h.1v.05c.11,.04,.21,.07,.32,.1v.05c.07,.01,.14,.04,.21,.06v.05h.15v.05c.07,.02,.14,.04,.22,.06v.06h.16v.04h.1v.06h.16v.05h.11v.05c.43,.12,.88,.25,1.32,.37,.15,.4,.06,1.15,.05,1.64Zm4.6-4.81h1.53v2.48h2.38c0,.41-.07,.8-.16,1.12-.01,.17-.03,.35-.05,.53-.24,.7-.42,1.45-.74,2.07h-.05v.1h-.05v.11h-.05v.11h-.05v.1h-.05c-.02,.08-.03,.14-.05,.21-.04,.02-.07,.04-.1,.06-.04,.11-.07,.21-.11,.32h-.05c-.02,.1,.02,.07,.05,.1,.06,.23,.17,.19,.27,.32v.1h.04c.07,.07,.12,.14,.18,.21,.04,.02,.07,.03,.11,.05v.11c.16,.14,.32,.28,.48,.42v.11c.07,.05,.14,.11,.21,.16,.14,.16,.28,.31,.42,.48,.06,.05,.46,.35,.47,.37v2.11h-.05c-.08-.14-.19-.12-.32-.21-.04-.06-.07-.11-.1-.16h-.11c-.05-.07-.1-.14-.16-.21h-.11c-.09-.11-.18-.21-.26-.32h-.11c-.19-.21-.39-.43-.58-.63-.23-.21-.46-.43-.69-.64v-.1c-.15-.12-.28-.25-.42-.37v-.1c-.05-.04-.11-.07-.16-.11v6.93h-1.53v-5.6h-.05c-.28,.3-.56,.6-.85,.9h-.1c-.12,.14-.25,.28-.37,.42h-.11c-.09,.11-.18,.21-.26,.32h-.11c-.07,.09-.14,.18-.21,.27-.18,.12-.35,.25-.53,.37v-2.01c.12-.1,.24-.21,.37-.31,.02-.04,.04-.07,.05-.11h.1c.28-.3,.56-.59,.85-.89,.26-.25,.53-.5,.8-.75v-.11c.1-.08,.21-.18,.31-.26v-.1c.09-.07,.17-.14,.27-.21v-.1c.05-.04,.11-.07,.16-.11v-.1s.1-.07,.15-.11v-.1c.05-.04,.11-.07,.16-.1v-.11s.07-.03,.11-.05v-.11s.07-.03,.11-.05v-.11s.07-.03,.1-.05v-.1s.07-.04,.1-.06c.02-.07,.04-.14,.05-.21,.04-.01,.07-.03,.11-.05v-.11l.11-.11v-.11h.05v-.1s.07-.04,.1-.05c.02-.08,.04-.17,.06-.27h.05v-.11h.05c.02-.06,.04-.14,.05-.21h.05c.12-.37,.24-.74,.37-1.1h-4.71v-1.54h2.59v-2.48Zm7.41,0h1.64v3.7h2.65v1.69h-2.65v8.25h2.86c.15,.4,.06,1.15,.05,1.64-.2,.08-.56,.05-.85,.05h-6.93c-.15-.4-.05-1.14-.05-1.64,.25-.09,.72-.06,1.06-.06h2.23v-8.25h-2.7v-1.69h2.7v-3.7Zm-24.61,4.6h10.58v1.64h-10.58v-1.64Zm128.01,1.48h11.85v2.01h-11.85v-2.01Zm-145.41,.53h6.61v1.59h-2.64v5.55c.19,0,.43-.06,.58-.11h.32v-.05h.32v-.05h.26v-.05h.21v-.05h.21v-.05h.21v-.05h.21v-.06h.16v-.05h.16v-.05h.16v-.05c.11-.02,.21-.04,.32-.06,.25-.11,.5-.3,.79-.37v1.75h-.05v.05c-.25,.03-.39,.14-.58,.21-.11,.02-.21,.03-.32,.05v.05h-.21v.05h-.16v.05h-.21v.05h-.22v.05c-.16,.02-.31,.04-.47,.06v.05h-.27c-.28,.09-.7,.13-1,.21h-.42v.05h-.53v.05h-.69v.05h-1.49v.05h-.63v-.05h-.48c-.37,0-.77-.01-1.06-.05,.03-.53,.07-1.06,.11-1.59h.26v.05h2.91v-5.71h-2.38v-1.59Zm15.45,1.22h14.5v1.59h-9.15c-.07,.2-.14,.39-.21,.59h-.05v.1h-.05v.11h-.05v.11h-.05v.16h-.05v.11h-.05v.11h-.05c-.04,.1-.07,.21-.11,.31h-.05v.16h-.05v.1h-.05v.11h-.06v.1h-.05c-.04,.11-.07,.21-.11,.33h-.05v.15h-.05v.1h-.05v.11h-.06c-.03,.11-.07,.21-.1,.31h-.05v.16h-.06v.11h-.05c-.14,.33-.29,.67-.42,1,.54,0,1.3,.08,1.74-.05,.32-.09,.85,.04,1.17-.06h.58c.23-.01,.46-.03,.69-.05v-.05h.47v-.05h.42v-.05h.37c.26-.08,.64-.14,.9-.21,.18-.02,.36-.03,.53-.05v-.05c.16-.02,.32-.04,.48-.06v-.05h.22v-.05h.16v-.05c.12-.02,.24-.04,.37-.05v-.05c-.15-.23-.28-.46-.43-.69v-.11s-.07-.03-.11-.05v-.11h-.05v-.1l-.11-.11v-.11s-.08-.04-.11-.06v-.1h-.05v-.11l-.11-.1v-.11s-.07-.03-.1-.05v-.11c-.06-.11-.15-.24-.21-.37h1.85c.03,.11,.07,.21,.1,.32h.03s.02,.07,.02,.11c.04,.01,.07,.03,.11,.05v.11h.04s.02,.07,.02,.11h.05v.1l.1,.11v.11s.07,.04,.11,.05v.1h.05v.11l.11,.1v.1s.07,.03,.1,.05v.11h.05v.11h.04s.02,.07,.02,.11l.1,.1v.11s.07,.04,.11,.05v.11h.05v.1h.04s.02,.07,.02,.11l.11,.1v.11s.07,.04,.11,.05v.11h.05v.1h.03s.02,.07,.02,.11l.1,.1v.11s.07,.03,.1,.05v.1l.11,.11v.11h.05v.11h.06v.11h.04c.04,.07,.05,.14,.07,.21,.04,.02,.07,.04,.11,.05,.04,.11,.07,.22,.11,.32,.14,.26,.37,.56,.42,.9h-1.74c-.04-.16-.15-.24-.21-.37v-.11h-.05c-.02-.07-.04-.14-.06-.21h-.05c-.02-.07-.03-.14-.05-.21-.04-.02-.07-.04-.11-.05v-.1h-.05v-.11h-.05c-.03-.07-.1-.34-.15-.37h-.16v.06c-.18,.03-.35,.07-.53,.1v.05h-.21v.05h-.22v.05h-.21v.06h-.22v.05c-.15,.02-.31,.03-.48,.05v.05h-.32v.05h-.27v.05h-.32v.05h-.31v.05h-.37v.06h-.42v.05h-.48v.05h-.53v.05c-.37,.02-.74,.03-1.11,.05h-.58c-.45,.13-1.2,.05-1.74,.05h-3.6v-1.59h1.42c.07-.19,.14-.39,.21-.58h.04s.01-.07,.01-.11h.05v-.1h.05v-.16h.04s.02-.07,.02-.11h.05v-.1h.05c.03-.11,.07-.21,.11-.32h.05v-.16h.04s.02-.07,.02-.11h.05v-.1h.05c.04-.1,.07-.21,.11-.32h.05v-.16h.05v-.11h.06v-.1h.05v-.11h.04c.05-.11,.09-.21,.12-.32h.05v-.16h.05v-.11h.05c.16-.37,.31-.74,.48-1.11h-3.6v-1.59Zm48.46,7.19v2.07c-.47,.02-.95,.04-1.42,.05v.05c-.29,.08-.75-.02-1,.05h-1.43v.06h-.63c-.49,0-1.14,.05-1.54-.06-.53-.01-1.06-.04-1.59-.05v-.05h-.37v-.05h-.31v-.06h-.31v-.05h-.22v-.06h-.27c-.46-.14-.92-.28-1.38-.42v-.05c-.11-.04-.21-.07-.31-.11v-.05h-.1v-.05c-.11-.04-.21-.07-.32-.11-.02-.04-.04-.07-.06-.11h-.11v-.05c-.05-.02-.11-.03-.16-.05-.02-.03-.04-.07-.05-.11h-.1c-.07-.09-.14-.17-.21-.27-.14-.12-.28-.25-.42-.37v-.1c-.05-.04-.1-.08-.16-.11v-.11h-.05v-.1s-.07-.04-.11-.05c-.02-.07-.04-.14-.05-.21h-.06v-.1h-.05v-.16h-.06v-.11h-.05v-.21h-.05v-.16h-.05v-.26h-.05c-.02-.32-.03-.64-.05-.95h.05v-.58h.05c.02-.18,.04-.35,.05-.53h.03c.04-.12,.05-.25,.07-.37h.06v-.16h.03c.02-.05,.02-.1,.02-.15h.06v-.11h.05v-.16h.04c.05-.1,.09-.21,.12-.31h.04s.02-.07,.02-.11h.05v-.1h.05v-.11h.04s.02-.07,.02-.1l.1-.1v-.11s.07-.03,.11-.05c.02-.07,.04-.14,.06-.21h.03c.03-.06,.05-.1,.07-.16,.04-.02,.07-.03,.11-.05v-.1s.1-.07,.16-.11v-.05h2.43c.04,.07,.03,.06,.1,.11v.05h-.05c-.14,.18-.28,.35-.42,.53-.05,.03-.11,.07-.15,.1v.1c-.06,.04-.11,.07-.16,.11-.02,.05-.04,.11-.05,.16-.04,.02-.07,.04-.11,.06v.1s-.07,.04-.1,.06v.1s-.07,.04-.11,.06v.1s-.07,.04-.11,.06c-.04,.11-.07,.21-.11,.32h-.05v.1h-.06v.11h-.05c-.03,.11-.07,.21-.1,.32h-.05v.16h-.05v.16h-.05v.16h-.06v.21h-.05c-.02,.2-.03,.39-.05,.59,0,.45,.04,.89,.21,1.16,.03,.02,.07,.03,.11,.05v.1c.07,.06,.14,.11,.21,.16,.02,.04,.03,.07,.05,.11h.11c.04,.05,.07,.1,.11,.16h.11l.1,.1h.11v.05h.1v.05c.07,.02,.14,.04,.21,.05v.06c.11,.02,.21,.03,.32,.05,1.18,.47,2.68,.53,4.34,.53,.6,0,1.4,.09,1.9-.05h1.11v-.05h.85v-.05c.37-.02,.74-.04,1.11-.06Z"/></g></g>
        </svg>